<?xml version="1.0" encoding="utf-8"?>
<!-- Generator: Adobe Illustrator 19.0.0, SVG Export Plug-In . SVG Version: 6.00 Build 0)  -->
<svg version="1.1" id="Camada_1" xmlns="http://www.w3.org/2000/svg" xmlns:xlink="http://www.w3.org/1999/xlink" x="0px" y="0px"
	 viewBox="0 0 822.9 225" style="enable-background:new 0 0 822.9 225;" xml:space="preserve">
<style type="text/css">
	.st0{fill:#AE579C;}
	.st1{fill-rule:evenodd;clip-rule:evenodd;fill:#AE579C;}
	.st2{fill-rule:evenodd;clip-rule:evenodd;}
</style>
<path class="st0" d="M733,144.5V132c2.3,1.9,4.7,3.3,7.4,4.3c2.7,0.9,5.3,1.4,8,1.4c1.6,0,3-0.1,4.2-0.4c1.2-0.3,2.2-0.7,3-1.2
	c0.8-0.5,1.4-1.1,1.8-1.8c0.4-0.7,0.6-1.4,0.6-2.3c0-1.1-0.3-2.1-0.9-2.9c-0.6-0.9-1.5-1.7-2.6-2.4c-1.1-0.7-2.4-1.4-3.9-2.1
	c-1.5-0.7-3.1-1.4-4.8-2.1c-4.4-1.8-7.6-4-9.8-6.7c-2.1-2.6-3.2-5.8-3.2-9.5c0-2.9,0.6-5.4,1.7-7.5c1.2-2.1,2.8-3.8,4.8-5.2
	c2-1.3,4.4-2.3,7-3c2.7-0.6,5.5-1,8.4-1c2.9,0,5.5,0.2,7.8,0.5c2.2,0.3,4.3,0.9,6.2,1.6v11.7c-0.9-0.7-2-1.2-3.1-1.7
	c-1.1-0.5-2.3-0.9-3.4-1.2c-1.2-0.3-2.3-0.6-3.5-0.7c-1.2-0.1-2.3-0.2-3.3-0.2c-1.4,0-2.7,0.1-3.9,0.4c-1.2,0.3-2.2,0.7-3,1.2
	c-0.8,0.5-1.4,1.1-1.9,1.8c-0.4,0.7-0.7,1.5-0.7,2.3c0,0.9,0.2,1.8,0.7,2.5c0.5,0.7,1.2,1.5,2.1,2.1c0.9,0.7,2,1.3,3.3,1.9
	c1.3,0.6,2.8,1.3,4.4,2c2.2,0.9,4.2,1.9,6,3c1.8,1.1,3.3,2.3,4.6,3.6c1.3,1.3,2.3,2.9,2.9,4.6c0.7,1.7,1,3.7,1,5.9
	c0,3.1-0.6,5.7-1.8,7.9c-1.2,2.1-2.8,3.8-4.8,5.1c-2,1.3-4.4,2.3-7.1,2.8c-2.7,0.6-5.5,0.9-8.5,0.9c-3.1,0-6-0.3-8.8-0.8
	C737.4,146.3,735,145.5,733,144.5 M689.2,100.9v35.5h6.3c5.5,0,9.7-1.6,12.9-4.9c3.1-3.3,4.7-7.7,4.7-13.4c0-5.3-1.5-9.5-4.6-12.6
	c-3.1-3.1-7.4-4.6-13-4.6H689.2z M676.6,146.6v-56h19.8c19.9,0,29.8,9.1,29.8,27.3c0,8.7-2.7,15.7-8.1,20.9
	c-5.4,5.2-12.6,7.8-21.7,7.8H676.6z M663.8,146.6H651L628,111.4c-1.3-2.1-2.3-3.6-2.8-4.6H625c0.2,2,0.3,5,0.3,9v30.8h-11.9v-56H627
	l22.2,34.1c1,1.5,1.9,3.1,2.8,4.6h0.2c-0.2-1.3-0.3-3.9-0.3-7.7v-31h11.9V146.6z M585.8,124.5l-6-18.8c-0.4-1.4-0.8-3.1-0.9-5h-0.3
	c-0.1,1.6-0.5,3.3-1,4.9l-6.1,19H585.8z M606.4,146.6h-13.7l-4-12.5h-19.9l-3.9,12.5h-13.7l20.4-56h15L606.4,146.6z M555.2,100.9
	h-16v45.7h-12.6v-45.7h-15.9V90.6h44.5V100.9z M468.5,144.5V132c2.3,1.9,4.7,3.3,7.4,4.3c2.7,0.9,5.3,1.4,8,1.4c1.6,0,3-0.1,4.2-0.4
	c1.2-0.3,2.2-0.7,3-1.2c0.8-0.5,1.4-1.1,1.8-1.8c0.4-0.7,0.6-1.4,0.6-2.3c0-1.1-0.3-2.1-0.9-2.9c-0.6-0.9-1.5-1.7-2.6-2.4
	c-1.1-0.7-2.4-1.4-3.9-2.1c-1.5-0.7-3.1-1.4-4.8-2.1c-4.4-1.8-7.6-4-9.8-6.7c-2.1-2.6-3.2-5.8-3.2-9.5c0-2.9,0.6-5.4,1.7-7.5
	c1.2-2.1,2.8-3.8,4.8-5.2c2-1.3,4.4-2.3,7-3c2.7-0.6,5.5-1,8.4-1c2.9,0,5.5,0.2,7.8,0.5c2.2,0.3,4.3,0.9,6.2,1.6v11.7
	c-0.9-0.7-2-1.2-3.1-1.7c-1.1-0.5-2.3-0.9-3.4-1.2c-1.2-0.3-2.3-0.6-3.5-0.7c-1.2-0.1-2.3-0.2-3.3-0.2c-1.4,0-2.7,0.1-3.9,0.4
	c-1.2,0.3-2.2,0.7-3,1.2c-0.8,0.5-1.4,1.1-1.9,1.8c-0.4,0.7-0.7,1.5-0.7,2.3c0,0.9,0.2,1.8,0.7,2.5c0.5,0.7,1.2,1.5,2.1,2.1
	c0.9,0.7,2,1.3,3.3,1.9c1.3,0.6,2.8,1.3,4.4,2c2.2,0.9,4.2,1.9,6,3c1.8,1.1,3.3,2.3,4.6,3.6c1.3,1.3,2.3,2.9,2.9,4.6
	c0.7,1.7,1,3.7,1,5.9c0,3.1-0.6,5.7-1.8,7.9c-1.2,2.1-2.8,3.8-4.8,5.1c-2,1.3-4.4,2.3-7.1,2.8c-2.7,0.6-5.5,0.9-8.5,0.9
	c-3.1,0-6-0.3-8.8-0.8C472.9,146.3,470.5,145.5,468.5,144.5z M401.6,144.5V132c2.3,1.9,4.7,3.3,7.4,4.3c2.7,0.9,5.3,1.4,8,1.4
	c1.6,0,3-0.1,4.2-0.4c1.2-0.3,2.2-0.7,3-1.2c0.8-0.5,1.4-1.1,1.8-1.8c0.4-0.7,0.6-1.4,0.6-2.3c0-1.1-0.3-2.1-0.9-2.9
	c-0.6-0.9-1.5-1.7-2.6-2.4c-1.1-0.7-2.4-1.4-3.9-2.1c-1.5-0.7-3.1-1.4-4.8-2.1c-4.4-1.8-7.6-4-9.8-6.7c-2.1-2.6-3.2-5.8-3.2-9.5
	c0-2.9,0.6-5.4,1.7-7.5c1.2-2.1,2.8-3.8,4.8-5.2c2-1.3,4.4-2.3,7-3c2.7-0.6,5.5-1,8.4-1c2.9,0,5.5,0.2,7.8,0.5
	c2.2,0.3,4.3,0.9,6.2,1.6v11.7c-0.9-0.7-2-1.2-3.1-1.7c-1.1-0.5-2.3-0.9-3.4-1.2c-1.2-0.3-2.3-0.6-3.5-0.7c-1.2-0.1-2.3-0.2-3.3-0.2
	c-1.4,0-2.7,0.1-3.9,0.4c-1.2,0.3-2.2,0.7-3,1.2c-0.8,0.5-1.4,1.1-1.9,1.8c-0.4,0.7-0.7,1.5-0.7,2.3c0,0.9,0.2,1.8,0.7,2.5
	c0.5,0.7,1.2,1.5,2.1,2.1c0.9,0.7,2,1.3,3.3,1.9c1.3,0.6,2.8,1.3,4.4,2c2.2,0.9,4.2,1.9,6,3c1.8,1.1,3.3,2.3,4.6,3.6
	c1.3,1.3,2.3,2.9,2.9,4.6c0.7,1.7,1,3.7,1,5.9c0,3.1-0.6,5.7-1.8,7.9c-1.2,2.1-2.8,3.8-4.8,5.1c-2,1.3-4.4,2.3-7.1,2.8
	c-2.7,0.6-5.5,0.9-8.5,0.9c-3.1,0-6-0.3-8.8-0.8C406.1,146.3,403.6,145.5,401.6,144.5z M396.7,100.9h-16v45.7H368v-45.7h-15.9V90.6
	h44.5V100.9z M319.3,100.1v15.6h5.5c2.7,0,4.9-0.8,6.5-2.3c1.7-1.6,2.5-3.6,2.5-5.9c0-4.9-2.9-7.3-8.8-7.3H319.3z M353.7,146.6
	h-14.5l-8.7-14.4c-0.7-1.1-1.3-2.1-1.9-2.9c-0.6-0.9-1.2-1.6-1.8-2.2c-0.6-0.6-1.3-1.1-1.9-1.4c-0.7-0.3-1.4-0.5-2.2-0.5h-3.4v21.4
	h-12.6v-56h20c13.6,0,20.4,5.1,20.4,15.2c0,2-0.3,3.8-0.9,5.4c-0.6,1.7-1.4,3.1-2.5,4.5c-1.1,1.3-2.4,2.5-4,3.4
	c-1.6,1-3.3,1.7-5.2,2.3v0.2c0.8,0.3,1.6,0.7,2.4,1.3c0.8,0.6,1.5,1.3,2.3,2.1c0.7,0.8,1.4,1.6,2.1,2.5c0.7,0.9,1.3,1.8,1.8,2.6
	L353.7,146.6z M279.1,124.5l-6-18.8c-0.4-1.4-0.8-3.1-0.9-5h-0.3c-0.1,1.6-0.5,3.3-1,4.9l-6.1,19H279.1z M299.7,146.6H286l-4-12.5
	h-19.9l-3.9,12.5h-13.7l20.4-56h15L299.7,146.6z"/>
<path d="M771,191.1h-7.5v-23.5h3.1v20.7h4.3V191.1z M744.7,179.7v-7.8c0-0.9-0.5-1.4-1.4-1.4h-0.9c-0.9,0-1.4,0.5-1.4,1.4v7.8H744.7
	z M741.1,191.1H738v-19.5c0-2.7,1.3-4,3.8-4h2.4c2.5,0,3.8,1.3,3.8,4v19.5h-3.1v-8.6h-3.6V191.1z M719.1,179v-11.4h3.1v23.5h-3.1
	v-4.7l-3.4-10.7v15.4h-3.1v-23.5h3.1L719.1,179z M691,188.3h1.6c0.8,0,1.2-0.5,1.2-1.4v-15.1c0-0.9-0.5-1.4-1.4-1.4h-1.5
	c-0.9,0-1.4,0.5-1.4,1.4v15.1C689.5,187.8,690,188.3,691,188.3z M690.2,191.1c-2.5,0-3.8-1.3-3.8-4v-15.5c0-2.7,1.3-4,3.8-4h3
	c2.5,0,3.8,1.3,3.8,4v15.5c0,2.7-1.3,4-3.8,4H690.2z M667.6,191.1v-23.5h3.1v23.5H667.6z M652.2,185.6v1.5c0,2.7-1.3,4-3.8,4h-2
	c-2.5,0-3.8-1.3-3.8-4v-15.5c0-2.7,1.3-4,3.8-4h2c2.5,0,3.8,1.3,3.8,4v2.7h-3.1v-2.4c0-0.9-0.5-1.4-1.4-1.4h-0.6
	c-0.8,0-1.2,0.5-1.2,1.4v15.1c0,0.9,0.4,1.4,1.2,1.4h0.8c0.8,0,1.2-0.5,1.2-1.4v-1.3H652.2z M621.2,188.3h1.6c0.8,0,1.2-0.5,1.2-1.4
	v-15.1c0-0.9-0.5-1.4-1.4-1.4h-1.5c-0.9,0-1.4,0.5-1.4,1.4v15.1C619.7,187.8,620.2,188.3,621.2,188.3z M620.4,191.1
	c-2.5,0-3.8-1.3-3.8-4v-15.5c0-2.7,1.3-4,3.8-4h3c2.5,0,3.8,1.3,3.8,4v15.5c0,2.7-1.3,4-3.8,4H620.4z M594.5,181.4l2.9-13.8h3.5
	v23.5h-3.1l0.3-15.4l-2.4,11.1h-2.4l-2.4-11.1l0.3,15.4h-3.1v-23.5h3.5L594.5,181.4z M566.5,188.3h1.6c0.8,0,1.2-0.5,1.2-1.4v-15.1
	c0-0.9-0.5-1.4-1.4-1.4h-1.5c-0.9,0-1.4,0.5-1.4,1.4v15.1C565.1,187.8,565.5,188.3,566.5,188.3z M565.7,191.1c-2.5,0-3.8-1.3-3.8-4
	v-15.5c0-2.7,1.3-4,3.8-4h3c2.5,0,3.8,1.3,3.8,4v15.5c0,2.7-1.3,4-3.8,4H565.7z M540,178.9h2.1c0.9,0,1.4-0.6,1.4-1.7v-5.1
	c0-1.1-0.5-1.7-1.4-1.7H540V178.9z M536.8,167.6h6.2c2.4,0,3.6,1.3,3.6,4v5.8c0,2.1-0.6,3.4-1.9,3.9l2.2,9.8h-3l-2.1-9.5H540v9.5
	h-3.1V167.6z M515,179.8h2c0.8,0,1.2-0.5,1.2-1.4v-6.6c0-0.9-0.5-1.4-1.4-1.4H515V179.8z M511.9,167.6h5.7c2.5,0,3.8,1.3,3.8,4v7
	c0,2.7-1.3,4-3.8,4H515v8.5h-3.1V167.6z M493.1,179.7v-7.8c0-0.9-0.5-1.4-1.4-1.4h-0.9c-0.9,0-1.4,0.5-1.4,1.4v7.8H493.1z
	 M489.5,191.1h-3.1v-19.5c0-2.7,1.3-4,3.8-4h2.4c2.5,0,3.8,1.3,3.8,4v19.5h-3.1v-8.6h-3.6V191.1z M464.4,178.9h2.1
	c0.9,0,1.4-0.6,1.4-1.7v-5.1c0-1.1-0.5-1.7-1.4-1.7h-2.1V178.9z M461.2,167.6h6.2c2.4,0,3.6,1.3,3.6,4v5.8c0,2.1-0.6,3.4-1.9,3.9
	l2.2,9.8h-3l-2.1-9.5h-1.9v9.5h-3.1V167.6z M445.4,167.6v19.1c0,3-1.3,4.5-3.8,4.5h-2.7c-2.5,0-3.8-1.5-3.8-4.5v-19h3.1v19.1
	c0,1,0.5,1.5,1.4,1.5h1.3c0.9,0,1.3-0.5,1.3-1.5v-19.1H445.4z M417.4,170.5v20.7h-3.1v-20.7h-3v-2.9h9.2v2.9H417.4z M389.5,191.1
	v-23.5h7.8v2.9h-4.7v7.1h4.1v2.9h-4.1v7.8h4.7v2.9H389.5z M371.8,170.5v20.7h-3.1v-20.7h-3v-2.9h9.2v2.9H371.8z M347.8,191.1v-23.5
	h3.1v23.5H347.8z M331.9,167.6v19.1c0,3-1.3,4.5-3.8,4.5h-2.7c-2.5,0-3.8-1.5-3.8-4.5v-19h3.1v19.1c0,1,0.5,1.5,1.4,1.5h1.3
	c0.9,0,1.3-0.5,1.3-1.5v-19.1H331.9z M302.4,188.3v-16.5c0-0.9-0.5-1.4-1.4-1.4h-1.5c-0.9,0-1.4,0.5-1.4,1.4v15.1
	c0,0.9,0.5,1.4,1.4,1.4H302.4z M307.4,191.1h-8.6c-2.5,0-3.8-1.3-3.8-4v-15.5c0-2.7,1.3-4,3.8-4h3c2.5,0,3.8,1.3,3.8,4v16.7h1.8
	V191.1z M273,178.9h2.1c0.9,0,1.4-0.6,1.4-1.7v-5.1c0-1.1-0.5-1.7-1.4-1.7H273V178.9z M269.9,167.6h6.2c2.4,0,3.6,1.3,3.6,4v5.8
	c0,2.1-0.6,3.4-1.9,3.9l2.2,9.8h-3l-2.1-9.5H273v9.5h-3.1V167.6z M251.1,179.7v-7.8c0-0.9-0.5-1.4-1.4-1.4h-0.9
	c-0.9,0-1.4,0.5-1.4,1.4v7.8H251.1z M247.5,191.1h-3.1v-19.5c0-2.7,1.3-4,3.8-4h2.4c2.5,0,3.8,1.3,3.8,4v19.5h-3.1v-8.6h-3.6V191.1z
	"/>
<polygon class="st1" points="47.8,52.8 146.2,121.9 47.8,191.1 47.8,156.9 96.4,121.9 47.8,87.4 "/>
<polygon class="st2" points="224,21.3 125.7,90.5 224,159.7 224,125.5 175.4,90.5 224,55.9 "/>
</svg>
